<?xml version="1.0" encoding="utf-8"?>
<!-- Generator: Adobe Illustrator 19.0.0, SVG Export Plug-In . SVG Version: 6.00 Build 0)  -->
<svg version="1.1" id="verze_x5F_new" xmlns="http://www.w3.org/2000/svg" xmlns:xlink="http://www.w3.org/1999/xlink" x="0px"
	 y="0px" viewBox="0 0 347.7 174.9" style="enable-background:new 0 0 347.7 174.9;" xml:space="preserve">
<style type="text/css">
	.st0{fill:#EA9F18;stroke:#EA9F18;stroke-width:0.9001;stroke-miterlimit:10;}
	.st1{fill:#1683A6;}
	.st2{fill:#63B33C;}
	.st3{fill:#0D7433;}
	.st4{fill:#FFFFFF;stroke:#F0F0F2;stroke-width:0.1223;stroke-miterlimit:10;}
</style>
<g id="XMLID_26_">
	<path id="XMLID_66_" class="st0" d="M119.1,87.4c-0.4,18.1-14.9,33-33,33c-18.2,0.1-35.1-14.7-35.1-33s16.9-33.2,35.1-33.1
		C104.2,54.4,119.5,69.3,119.1,87.4z"/>
	<path id="XMLID_65_" class="st1" d="M26,122.1c-1.1-1.8-2.4-3.9-3.2-5.8c-3.5-8.1-6.6-18.6-6.6-27.9c0-10.1,1.6-19,5.2-27.8
		c3.5-8.8,10-17.2,16.1-23.8c6.1-6.5,14.1-10.5,22.2-14.3c8.2-3.8,16.9-5.7,26.2-5.7c5.5,0,10.9,0.7,16.2,2.1
		c5.3,1.4,10.5,2.6,15.2,5.3c4.8,2.7,9.8,5.8,13.8,9.7c4.1,3.9,8,7.9,11,12.9l-25.8,26c-1.7-3.4-2.1-3.5-4.1-6.2
		c-2-2.8-5.3-5.2-7.9-7.1c-2.7-1.9-5.7-2.8-8.8-3.8c-3.1-1-6.4-1.5-9.7-1.5c-4.6,0-9,0.7-13.1,2.6c-4.1,1.9-7.4,4.3-10.7,7.4
		c-3.3,3.1-4.5,5.5-6.6,9.9c-2.1,4.5-2.6,9.3-2.6,15c0,4.6,1.5,8.8,3.2,12.8c1,2.3,2.6,4.2,4.1,6.1L26,122.1z"/>
	<path id="XMLID_64_" class="st2" d="M115.7,102.6c0,0-7-0.6-14.7-1.5c-4.9-0.6-10.3-1.7-14-1.6c-9.6,0.3-33.5,6.8-42.9,11.8
		S25.9,122,25.9,122s20.3-9.3,25.6-10.8s12.7-3.5,23.3-1.8s16.2,1.8,24.1,0.4s13-3.1,15.9-5.4C114.8,104.4,115.7,103.2,115.7,102.6z
		"/>
	<path id="XMLID_63_" class="st3" d="M141.5,128.3c-3.1,4.4-7.2,8-11.3,11.5c-4.1,3.5-8.5,6.5-13.2,9c-4.7,2.5-9.7,4.3-14.9,5.6
		c-5.2,1.3-10.6,1.9-16.1,1.9c-9.3,0-18-1.7-26.2-5.2c-8.2-3.5-15.4-7.7-21.5-13.7c-4.7-4.6-9.1-9.6-12.5-15.4
		c0,0,23.6-12.8,34.2-13.7s21.2,2,24.8,1.9c4-0.1,21-1.3,25.9-4.3c0,0,4.1-1.8,5-3.4l23.9,23.9L141.5,128.3z"/>
	<path id="XMLID_61_" d="M59.7,108.7"/>
	<g id="XMLID_29_">
		<path id="XMLID_60_" class="st4" d="M71.8,102l-0.2-1.8h-0.2l0.5-1.1l9,0c0,0,9.9-0.3,12.5-0.5s5-0.5,5-0.5l3.9,0.8l0,0.3l-0.2,0
			l-0.2,1.9l-3.7-0.1l-12,0.5L71.8,102z"/>
		<path id="XMLID_59_" class="st4" d="M81.2,99.1l0-0.5c0,0-0.2-1-0.2-1.4c0-0.4,0.2-1.1,0.2-1.1s2-1.1,6.1-0.9s5.6,0.8,5.6,0.8
			s0.3,1,0.3,1.5c0,0.5-0.2,1-0.2,1l0,0.2C93,98.7,81.4,99.2,81.2,99.1z"/>
		<path id="XMLID_58_" class="st4" d="M82.5,95.6v-0.5l0,0c0-0.2,0.1-0.4,0.3-0.5c0.2-0.1,0.6-0.3,1-0.4c0.8-0.2,2.4-0.3,3.3-0.3
			c0.9,0,3.3,0.1,4.2,0.5c0,0,0.4,0.2,0.5,0.5v0.8"/>
		<path id="XMLID_57_" class="st4" d="M86,93.9l0.2-10.7c0,0,0.3-0.4,0.9-0.3c0.6,0,0.8,0.3,0.8,0.3l0.3,10.8"/>
		<path id="XMLID_56_" class="st4" d="M86.2,83.4c0,0-0.6-0.2-0.7-0.5c-0.1-0.3,1-0.6,1.6-0.6s1.3,0.2,1.5,0.5
			c0.3,0.3-0.7,0.6-0.7,0.6"/>
		<path id="XMLID_42_" class="st4" d="M85.5,82.8l-0.4-1.3c0,0,0.4-0.8,2-0.7c1.7,0.1,1.8,0.7,1.8,0.7l-0.4,1.4"/>
		<path id="XMLID_41_" class="st4" d="M85.1,81.3l-0.2-1l0-0.7c0,0-0.3-0.2-0.2-0.5c0-0.2,0.6-0.6,1.3-0.8c0.3-0.1,0.6-0.1,0.9-0.1
			c1.3,0,2.2,0.5,2.4,0.8c0.3,0.3-0.2,0.8-0.2,0.8l0,0.6l-0.3,0.9"/>
		<path id="XMLID_40_" class="st4" d="M88.1,78.3l0-0.8c0,0,0.9-0.2,0.9-0.9s-1.5-0.9-2-0.9c0,0-0.2,0-0.4,0c-0.5,0-1.3,0.2-1.5,0.9
			c0,0-0.1,0.6,1,0.9l0,0.8"/>
		<path id="XMLID_39_" class="st4" d="M87,70.9"/>
		<path id="XMLID_38_" class="st4" d="M87.5,75.8l-0.1-4.4c0,0,0-0.2-0.5-0.2c0,0-0.2,0-0.4,0.2v4.3"/>
		<path id="XMLID_37_" class="st4" d="M86.4,71.4c0,0-0.7-0.3-0.6-0.8s0.8-0.5,1.1-0.5s1.1,0.1,1.2,0.5c0.1,0.4-0.7,0.7-0.7,0.7"/>
		<path id="XMLID_36_" class="st4" d="M86.5,70.1l0.1-2.6c0,0-0.4-0.1-0.4-0.4c0-0.3,0.7-0.3,0.7-0.3s0.7,0,0.7,0.3
			c0,0.3-0.4,0.3-0.4,0.3l0.1,2.6"/>
		<path id="XMLID_35_" class="st4" d="M86.7,66.8l0-5.3c0-0.1,0.2-0.1,0.2-0.1s0.1,0,0.2,0.1l0.1,5.4"/>
	</g>
	<g id="XMLID_2_">
		<path id="XMLID_3_" class="st1" d="M162.9,87.5c0,2.8-0.5,5.4-1.5,7.9s-2.4,4.5-4.1,6.3c-1.7,1.8-3.8,3.2-6.1,4.2
			c-2.3,1-4.8,1.5-7.5,1.5c-2.6,0-5.1-0.5-7.5-1.5c-2.3-1-4.4-2.4-6.1-4.2c-1.7-1.8-3.1-3.9-4.1-6.3c-1-2.4-1.5-5-1.5-7.9
			c0-2.9,0.5-5.5,1.5-7.9c1-2.4,2.4-4.5,4.1-6.3c1.7-1.8,3.8-3.2,6.1-4.2c2.3-1,4.8-1.5,7.5-1.5c2.7,0,5.2,0.5,7.5,1.4
			c2.3,0.9,4.4,2.3,6.1,4c1.7,1.7,3.1,3.8,4.1,6.3C162.4,81.8,162.9,84.5,162.9,87.5z M153.3,87.5c0-1.5-0.3-2.9-0.8-4.2
			c-0.5-1.3-1.2-2.3-2.1-3.2c-0.9-0.9-1.9-1.6-3-2.1c-1.2-0.5-2.4-0.7-3.7-0.7c-1.3,0-2.5,0.2-3.7,0.7c-1.2,0.5-2.2,1.2-3,2.1
			c-0.9,0.9-1.5,2-2,3.2c-0.5,1.3-0.7,2.7-0.7,4.2c0,1.5,0.2,2.8,0.7,4c0.5,1.2,1.2,2.3,2,3.2c0.9,0.9,1.9,1.6,3,2.2
			s2.4,0.8,3.7,0.8c1.3,0,2.5-0.2,3.7-0.7s2.2-1.2,3-2.1c0.9-0.9,1.6-2,2.1-3.2C153,90.4,153.3,89,153.3,87.5z"/>
		<path id="XMLID_6_" class="st1" d="M215.8,93c0,2-0.4,3.8-1.1,5.6c-0.8,1.7-1.8,3.3-3.1,4.6c-1.3,1.3-2.8,2.3-4.6,3.1
			s-3.6,1.1-5.6,1.1c-1.8,0-3.5-0.3-5.1-0.9s-3.1-1.5-4.5-2.7c-1.3,1.2-2.8,2.1-4.4,2.7s-3.3,0.9-5.2,0.9c-2,0-3.9-0.4-5.6-1.1
			s-3.3-1.8-4.6-3.1c-1.3-1.3-2.3-2.8-3.1-4.6c-0.8-1.7-1.1-3.6-1.1-5.6v-24h9.6v24c0,0.7,0.1,1.3,0.4,1.8c0.2,0.6,0.6,1.1,1,1.5
			c0.4,0.4,0.9,0.8,1.5,1s1.2,0.4,1.8,0.4s1.3-0.1,1.9-0.4s1.1-0.6,1.5-1c0.4-0.4,0.8-0.9,1-1.5c0.2-0.6,0.4-1.2,0.4-1.8v-24h9.6v24
			c0,0.7,0.1,1.3,0.4,1.8c0.3,0.6,0.6,1.1,1,1.5c0.4,0.4,0.9,0.8,1.5,1s1.2,0.4,1.8,0.4s1.3-0.1,1.9-0.4s1.1-0.6,1.5-1
			c0.4-0.4,0.8-0.9,1-1.5c0.3-0.6,0.4-1.2,0.4-1.8v-24h9.6V93z"/>
		<path id="XMLID_9_" class="st1" d="M259.1,87.5c0,2.8-0.5,5.4-1.5,7.9s-2.4,4.5-4.1,6.3c-1.7,1.8-3.8,3.2-6.1,4.2
			s-4.8,1.5-7.5,1.5c-2.6,0-5.1-0.5-7.5-1.5s-4.4-2.4-6.1-4.2c-1.7-1.8-3.1-3.9-4.1-6.3s-1.5-5-1.5-7.9c0-2.9,0.5-5.5,1.5-7.9
			c1-2.4,2.4-4.5,4.1-6.3c1.7-1.8,3.8-3.2,6.1-4.2c2.3-1,4.8-1.5,7.5-1.5c2.7,0,5.2,0.5,7.5,1.4s4.4,2.3,6.1,4
			c1.7,1.7,3.1,3.8,4.1,6.3C258.6,81.8,259.1,84.5,259.1,87.5z M249.5,87.5c0-1.5-0.3-2.9-0.8-4.2c-0.5-1.3-1.2-2.3-2.1-3.2
			c-0.9-0.9-1.9-1.6-3-2.1c-1.2-0.5-2.4-0.7-3.7-0.7s-2.5,0.2-3.7,0.7c-1.2,0.5-2.2,1.2-3,2.1c-0.9,0.9-1.5,2-2,3.2
			c-0.5,1.3-0.7,2.7-0.7,4.2c0,1.5,0.2,2.8,0.7,4c0.5,1.2,1.2,2.3,2,3.2s1.9,1.6,3,2.2s2.4,0.8,3.7,0.8s2.5-0.2,3.7-0.7
			s2.2-1.2,3-2.1c0.9-0.9,1.6-2,2.1-3.2S249.5,89,249.5,87.5z"/>
		<path id="XMLID_12_" class="st1" d="M274,106.7h-9.6V69h2.3l3.2,4.5c1.5-1.4,3.3-2.5,5.3-3.3c2-0.8,4-1.1,6.1-1.1h8.5v9.6h-8.5
			c-1,0-2,0.2-2.8,0.6c-0.9,0.4-1.7,0.9-2.3,1.5c-0.7,0.7-1.2,1.4-1.5,2.3c-0.4,0.9-0.6,1.8-0.6,2.8V106.7z"/>
		<path id="XMLID_14_" class="st1" d="M303.9,106.7h-9.7V54h9.7v33.2l14.3-18.1h11l-12.5,15.7l12.5,21.9h-11L310.6,93l-6.7,8.9
			V106.7z"/>
		<path id="XMLID_16_" class="st1" d="M270,134.2c0,1.9-0.4,3.6-1.1,5.2s-1.7,3.1-2.9,4.3s-2.6,2.2-4.3,2.9s-3.4,1.1-5.2,1.1
			c-1.1,0-2.3-0.1-3.4-0.4V140c0.5,0.3,1,0.5,1.6,0.7s1.2,0.2,1.8,0.2c0.9,0,1.8-0.2,2.6-0.5s1.5-0.8,2.1-1.4s1.1-1.3,1.4-2.1
			s0.5-1.7,0.5-2.6V114h6.7V134.2z"/>
		<path id="XMLID_18_" class="st1" d="M298.9,147.7h-23V114h23v6.7h-16.3v6.7h11v6.7h-11v6.7h16.3V147.7z"/>
		<path id="XMLID_20_" class="st1" d="M301.2,124.1c0-1.4,0.3-2.7,0.8-3.9s1.3-2.3,2.2-3.2s2-1.6,3.2-2.2s2.5-0.8,3.9-0.8h15.4v6.7
			h-15.4c-0.5,0-0.9,0.1-1.3,0.3s-0.8,0.4-1.1,0.7s-0.5,0.7-0.7,1.1s-0.3,0.8-0.3,1.3s0.1,0.9,0.3,1.3s0.4,0.8,0.7,1.1
			s0.7,0.5,1.1,0.7s0.8,0.3,1.3,0.3h6.7c1.4,0,2.7,0.3,3.9,0.8c1.2,0.5,2.3,1.2,3.2,2.2s1.6,2,2.2,3.2s0.8,2.5,0.8,3.9
			s-0.3,2.7-0.8,3.9s-1.2,2.3-2.2,3.2s-2,1.6-3.2,2.2s-2.5,0.8-3.9,0.8h-14.9v-6.7H318c0.5,0,0.9-0.1,1.3-0.3s0.8-0.4,1.1-0.7
			s0.5-0.7,0.7-1.1s0.3-0.8,0.3-1.3s-0.1-0.9-0.3-1.3s-0.4-0.8-0.7-1.1s-0.7-0.5-1.1-0.7s-0.8-0.3-1.3-0.3h-6.7
			c-1.4,0-2.7-0.3-3.9-0.8s-2.3-1.3-3.2-2.2s-1.6-2-2.2-3.2C301.5,126.8,301.2,125.5,301.2,124.1z"/>
	</g>
</g>
</svg>
